<svg xmlns="http://www.w3.org/2000/svg" viewBox="0 0 406 338"><defs><style>.a{fill:#fff;}</style></defs><path class="a" d="M677.25,445.05h6V110.55h-406v334.5h8a3.5,3.5,0,0,1,3.5,3.5h5a3.5,3.5,0,0,1,3.5-3.5h8a3.5,3.5,0,0,1,3.5,3.5h5a3.5,3.5,0,0,1,3.5-3.5h8a3.5,3.5,0,0,1,3.5,3.5h5a3.5,3.5,0,0,1,3.5-3.5h8a3.5,3.5,0,0,1,3.5,3.5h5a3.5,3.5,0,0,1,3.5-3.5h8a3.5,3.5,0,0,1,3.5,3.5h5a3.5,3.5,0,0,1,3.5-3.5h8a3.5,3.5,0,0,1,3.5,3.5h5a3.5,3.5,0,0,1,3.5-3.5h8a3.5,3.5,0,0,1,3.5,3.5h5a3.5,3.5,0,0,1,3.5-3.5h8a3.5,3.5,0,0,1,3.5,3.5h5a3.5,3.5,0,0,1,3.5-3.5h8a3.5,3.5,0,0,1,3.5,3.5h5a3.5,3.5,0,0,1,3.5-3.5h8a3.5,3.5,0,0,1,3.5,3.5h5a3.5,3.5,0,0,1,3.5-3.5h8a3.5,3.5,0,0,1,3.5,3.5h5a3.5,3.5,0,0,1,3.5-3.5h8a3.5,3.5,0,0,1,3.5,3.5h5a3.5,3.5,0,0,1,3.5-3.5h8a3.5,3.5,0,0,1,3.5,3.5h5a3.5,3.5,0,0,1,3.5-3.5h8a3.5,3.5,0,0,1,3.5,3.5h5a3.5,3.5,0,0,1,3.5-3.5h8a3.5,3.5,0,0,1,3.5,3.5h5a3.5,3.5,0,0,1,3.5-3.5h8a3.5,3.5,0,0,1,3.5,3.5h5a3.5,3.5,0,0,1,3.5-3.5h8a3.5,3.5,0,0,1,3.5,3.5h5a3.5,3.5,0,0,1,3.5-3.5h8a3.5,3.5,0,0,1,3.5,3.5h5a3.5,3.5,0,0,1,3.5-3.5h8a3.5,3.5,0,0,1,3.5,3.5h5a3.5,3.5,0,0,1,3.5-3.5h8a3.5,3.5,0,0,1,3.5,3.5h5A3.5,3.5,0,0,1,677.25,445.05Z" transform="translate(-277.25 -110.55)"/></svg>