<svg id="Layer_1" data-name="Layer 1" xmlns="http://www.w3.org/2000/svg" viewBox="0 0 208 214"><defs><style>.cls-1{fill:#fff;}.cls-2{fill:#fcb940;}</style></defs><rect class="cls-1" width="208" height="214"/><circle class="cls-2" cx="62.24" cy="107" r="10.58"/><path class="cls-2" d="M53,120.22H70.16a14.56,14.56,0,0,1,14.56,14.56v16.91a8.2,8.2,0,0,1-8.2,8.2H46.64a8.2,8.2,0,0,1-8.2-8.2V134.78A14.56,14.56,0,0,1,53,120.22Z"/><path class="cls-2" d="M46.37,155.93H59.59a0,0,0,0,1,0,0v24.46A6.61,6.61,0,0,1,53,187h0a6.61,6.61,0,0,1-6.61-6.61V155.93A0,0,0,0,1,46.37,155.93Z"/><path class="cls-2" d="M64.88,155.93H78.1a0,0,0,0,1,0,0v24.46A6.61,6.61,0,0,1,71.49,187h0a6.61,6.61,0,0,1-6.61-6.61V155.93a0,0,0,0,1,0,0Z"/><circle class="cls-2" cx="103.7" cy="72.29" r="10.58"/><path class="cls-2" d="M94.46,85.51h17.16a14.56,14.56,0,0,1,14.56,14.56V117a8.2,8.2,0,0,1-8.2,8.2H88.1a8.2,8.2,0,0,1-8.2-8.2V100.07A14.56,14.56,0,0,1,94.46,85.51Z"/><path class="cls-2" d="M87.83,121.21h13.22a0,0,0,0,1,0,0v24.46a6.61,6.61,0,0,1-6.61,6.61h0a6.61,6.61,0,0,1-6.61-6.61V121.21A0,0,0,0,1,87.83,121.21Z"/><path class="cls-2" d="M106.34,121.21h13.22a0,0,0,0,1,0,0v24.46a6.61,6.61,0,0,1-6.61,6.61h0a6.61,6.61,0,0,1-6.61-6.61V121.21A0,0,0,0,1,106.34,121.21Z"/><circle class="cls-2" cx="147.09" cy="37.58" r="10.58"/><path class="cls-2" d="M137.84,50.8H155a14.56,14.56,0,0,1,14.56,14.56V82.27a8.2,8.2,0,0,1-8.2,8.2H131.48a8.2,8.2,0,0,1-8.2-8.2V65.36A14.56,14.56,0,0,1,137.84,50.8Z"/><path class="cls-2" d="M131.22,86.5h13.22a0,0,0,0,1,0,0V111a6.61,6.61,0,0,1-6.61,6.61h0a6.61,6.61,0,0,1-6.61-6.61V86.5A0,0,0,0,1,131.22,86.5Z"/><path class="cls-2" d="M149.73,86.5H163a0,0,0,0,1,0,0V111a6.61,6.61,0,0,1-6.61,6.61h0a6.61,6.61,0,0,1-6.61-6.61V86.5A0,0,0,0,1,149.73,86.5Z"/></svg>