<svg id="Layer_1" data-name="Layer 1" xmlns="http://www.w3.org/2000/svg" viewBox="0 0 208 214"><defs><style>.cls-1{fill:#fff;}.cls-2{fill:#fcb940;}.cls-3{fill:none;stroke:#fff;stroke-linecap:round;stroke-miterlimit:10;stroke-width:6.46px;}</style></defs><rect class="cls-1" width="208" height="214"/><circle class="cls-2" cx="104" cy="107" r="70"/><path class="cls-3" d="M604.53,1533.6h2.93a7.43,7.43,0,0,1,4.25,1.33l5.23,3.62a7.47,7.47,0,0,0,7.77.44l6.43-3.43a7.44,7.44,0,0,1,7.27.14l5.84,3.41a7.51,7.51,0,0,0,7.1.23l7.47-3.73a7.47,7.47,0,0,1,7.7.63l4.83,3.49a7.51,7.51,0,0,0,4.37,1.41h4.19" transform="translate(-536.07 -1393.21)"/><ellipse class="cls-1" cx="620.69" cy="1482.45" rx="24.23" ry="18.31" transform="translate(-1517.3 218.73) rotate(-71.9)"/><ellipse class="cls-1" cx="663.76" cy="1482.45" rx="16.52" ry="21.87" transform="translate(-984.33 -1094.68) rotate(-19.09)"/><circle class="cls-2" cx="84.62" cy="88.69" r="5.92"/><circle class="cls-2" cx="128.77" cy="88.69" r="5.92"/></svg>