<svg id="Layer_1" data-name="Layer 1" xmlns="http://www.w3.org/2000/svg" viewBox="0 0 208 214"><defs><style>.cls-1{fill:#fff;}.cls-2{fill:#fcb940;}</style></defs><rect class="cls-1" width="208" height="214"/><polygon class="cls-2" points="176 82.75 33 82.75 33 70.81 104.5 32.25 176 70.81 176 82.75"/><rect class="cls-2" x="24" y="169.75" width="160" height="12"/><rect class="cls-2" x="38.5" y="157.75" width="131" height="12"/><rect class="cls-2" x="560.17" y="1514.74" width="62.56" height="10" transform="translate(1575.13 -464.92) rotate(90)"/><rect class="cls-2" x="582.45" y="1480.46" width="18" height="8" transform="translate(646.84 1575.71) rotate(180)"/><rect class="cls-2" x="582.69" y="1543.46" width="18" height="8" transform="translate(647.31 1701.71) rotate(180)"/><rect class="cls-2" x="584.17" y="1514.74" width="62.56" height="10" transform="translate(1599.13 -488.92) rotate(90)"/><rect class="cls-2" x="606.45" y="1480.46" width="18" height="8" transform="translate(694.84 1575.71) rotate(180)"/><rect class="cls-2" x="606.69" y="1543.46" width="18" height="8" transform="translate(695.31 1701.71) rotate(180)"/><rect class="cls-2" x="633.17" y="1514.74" width="62.56" height="10" transform="translate(1648.13 -537.92) rotate(90)"/><rect class="cls-2" x="655.45" y="1480.46" width="18" height="8" transform="translate(792.84 1575.71) rotate(180)"/><rect class="cls-2" x="655.69" y="1543.46" width="18" height="8" transform="translate(793.31 1701.71) rotate(180)"/><rect class="cls-2" x="657.17" y="1514.74" width="62.56" height="10" transform="translate(1672.13 -561.92) rotate(90)"/><rect class="cls-2" x="679.45" y="1480.46" width="18" height="8" transform="translate(840.84 1575.71) rotate(180)"/><rect class="cls-2" x="679.69" y="1543.46" width="18" height="8" transform="translate(841.31 1701.71) rotate(180)"/></svg>