<svg id="Layer_1" data-name="Layer 1" xmlns="http://www.w3.org/2000/svg" viewBox="0 0 208 214"><defs><style>.cls-1{fill:#fff;}.cls-2{fill:#fcb940;}</style></defs><rect class="cls-1" width="208" height="214"/><rect class="cls-2" x="61.97" y="27" width="84.06" height="160" rx="10.57"/><path class="cls-1" d="M79.27,27h49.47a0,0,0,0,1,0,0v4.8a6.8,6.8,0,0,1-6.8,6.8H86.06a6.8,6.8,0,0,1-6.8-6.8V27A0,0,0,0,1,79.27,27Z"/><path class="cls-1" d="M626.87,1478.12l2.74,11.75a2.12,2.12,0,0,1-.71,2.12l-3.79,3.18a1.9,1.9,0,0,0-.44,2.38c1.23,2.23,3.69,6.6,5.24,8.86a103.08,103.08,0,0,0,7.12,8.41,1.71,1.71,0,0,0,2.2.27l3.82-2.5a2.18,2.18,0,0,1,2.34,0l10.13,6.08a2.25,2.25,0,0,1,1.07,2.28,11.66,11.66,0,0,1-1.37,4.26c-1.35,2.12-7.54,6.76-18,1s-26.47-28.6-23.58-40.58c2.29-9.46,9-9.29,11.77-8.79A1.77,1.77,0,0,1,626.87,1478.12Z" transform="translate(-536.07 -1393.21)"/><path class="cls-1" d="M649.17,1502.85a2.05,2.05,0,0,1-2-2.57,7.62,7.62,0,0,0,.28-2.08,7.83,7.83,0,0,0-6.35-7.69,2,2,0,1,1,.75-4,11.9,11.9,0,0,1,9.24,14.82A2,2,0,0,1,649.17,1502.85Z" transform="translate(-536.07 -1393.21)"/><path class="cls-1" d="M656.44,1504.84a2,2,0,0,1-.54-.07,2,2,0,0,1-1.42-2.49,15.37,15.37,0,0,0-11.93-19.17,2,2,0,0,1,.76-4,19.45,19.45,0,0,1,15.08,24.23A2,2,0,0,1,656.44,1504.84Z" transform="translate(-536.07 -1393.21)"/><path class="cls-1" d="M663.89,1506.89a2,2,0,0,1-.53-.07,2,2,0,0,1-1.42-2.49,23.4,23.4,0,0,0,.82-6.13A23.09,23.09,0,0,0,644,1475.52a2,2,0,0,1,.76-4,27.2,27.2,0,0,1,21.09,33.87A2,2,0,0,1,663.89,1506.89Z" transform="translate(-536.07 -1393.21)"/></svg>