<svg xmlns="http://www.w3.org/2000/svg" viewBox="0 0 243.99 80"><defs><style>.a{fill:#010101;}.b{fill:#fbb93f;}</style></defs><path class="a" d="M167.89,293.39V270.6h17.72v22.79h-4V274.32h-9.76v19.07Z" transform="translate(-94.12 -257.95)"/><path class="a" d="M189.3,285.08c0-5.49,3.34-8.83,7.9-8.83S205,279.59,205,285s-3.34,8.83-7.9,8.83S189.3,290.5,189.3,285.08Zm11.88,0c0-3.46-1.64-5.45-4-5.45s-4,2-4,5.45,1.64,5.46,4,5.46S201.18,288.51,201.18,285Z" transform="translate(-94.12 -257.95)"/><path class="a" d="M216.81,276.7c3.34,0,5.43,1.7,5.43,4.4a3.89,3.89,0,0,1-2.06,3.56v.06a4,4,0,0,1,2.76,3.95c0,2.89-2.25,4.72-5.81,4.72h-8.57V276.7Zm-4.46,2.95v4h3.85c1.41,0,2.25-.74,2.25-2s-.87-2-2.31-2Zm0,6.61v4.18h4.33c1.54,0,2.47-.8,2.47-2.12s-.9-2.06-2.47-2.06Z" transform="translate(-94.12 -257.95)"/><path class="a" d="M229.49,286.43c.38,2.76,1.86,4.2,4.3,4.2a7.28,7.28,0,0,0,4.65-1.86l1.7,2.73a10,10,0,0,1-6.48,2.34c-5,0-8.09-3.34-8.09-8.7s3.11-8.89,7.77-8.89c4.49,0,7.38,3.37,7.38,8.7v1.48Zm0-2.64h7.44c-.09-2.76-1.5-4.52-3.66-4.52S229.58,281.1,229.49,283.79Z" transform="translate(-94.12 -257.95)"/><path class="a" d="M248,276.7v1.54a6.72,6.72,0,0,1,4.82-2c4.27,0,7,3.37,7,8.6,0,5.4-2.89,9-7.26,9a6,6,0,0,1-4.56-2v7h-3.85V276.7Zm0,4.78v7.1a4.85,4.85,0,0,0,3.76,1.92c2.6,0,4.2-2.08,4.2-5.52s-1.54-5.39-4.17-5.39A4.92,4.92,0,0,0,248,281.48Z" transform="translate(-94.12 -257.95)"/><path class="a" d="M263.4,293.39V276.7h3.86v6.35h6.93V276.7H278v16.69h-3.85v-7.13h-6.93v7.13Z" transform="translate(-94.12 -257.95)"/><path class="a" d="M285.49,286.43c.38,2.76,1.86,4.2,4.3,4.2a7.28,7.28,0,0,0,4.65-1.86l1.7,2.73a10,10,0,0,1-6.48,2.34c-5,0-8.09-3.34-8.09-8.7s3.11-8.89,7.77-8.89c4.49,0,7.38,3.37,7.38,8.7v1.48Zm0-2.64h7.44c-.09-2.76-1.5-4.52-3.66-4.52S285.58,281.1,285.49,283.79Z" transform="translate(-94.12 -257.95)"/><path class="a" d="M300.21,293.39V276.7h3.85l5.46,7.41L315,276.7h3.85v16.69H315V282.48h-.07l-5.36,7.32h-.06l-5.36-7.32h-.07v10.91Z" transform="translate(-94.12 -257.95)"/><path class="a" d="M322.37,285.08c0-5.49,3.34-8.83,7.9-8.83s7.84,3.34,7.84,8.76-3.34,8.83-7.9,8.83S322.37,290.5,322.37,285.08Zm11.88,0c0-3.46-1.64-5.45-4-5.45s-4,2-4,5.45,1.63,5.46,4,5.46S334.25,288.51,334.25,285Z" transform="translate(-94.12 -257.95)"/><path class="a" d="M167.89,328.32V305.53h17.72v22.79h-4V309.25h-9.76v19.07Z" transform="translate(-94.12 -257.95)"/><path class="a" d="M189.3,320c0-5.49,3.34-8.83,7.9-8.83s7.83,3.34,7.83,8.76-3.34,8.83-7.9,8.83S189.3,325.43,189.3,320Zm11.88,0c0-3.47-1.64-5.46-4-5.46s-4,2-4,5.46,1.64,5.45,4,5.45S201.18,323.44,201.18,320Z" transform="translate(-94.12 -257.95)"/><path class="a" d="M222.42,324.12a7.66,7.66,0,0,1-7,4.65c-4.53,0-7.61-3.56-7.61-8.73s3.21-8.86,7.83-8.86a7.11,7.11,0,0,1,6.74,4.43L219,317.25c-.7-1.8-1.86-2.73-3.4-2.73-2.41,0-4,2.15-4,5.46s1.51,5.45,3.79,5.45c1.54,0,2.82-1.06,3.66-3Z" transform="translate(-94.12 -257.95)"/><path class="a" d="M225.54,328.32V311.63h3.85v10.91h.07l7.64-10.91H241v16.69H237.1V317.41H237l-7.64,10.91Z" transform="translate(-94.12 -257.95)"/><path class="a" d="M259.44,328.32h-3.85V314.65h-5l-.32,6.06c-.32,5.78-2.09,8.06-6.29,8.06h-.52v-3h.07c1.76,0,2.6-1.55,2.82-5.24l.55-8.89h12.55Z" transform="translate(-94.12 -257.95)"/><path class="a" d="M263.79,328.32V311.63h3.85v6.55h1.61c1.41,0,1.86-1.22,2.79-3,1.83-3.5,2.35-3.82,6.1-3.82h.23v3.08c-1.9,0-2.06.42-3.37,2.8-.84,1.51-1.19,2-1.74,2.31l5.81,8.76h-4.62l-4.65-7.19h-2.16v7.19Z" transform="translate(-94.12 -257.95)"/><path class="a" d="M281.81,330.83a7.78,7.78,0,0,0,1.67.19c1.54,0,2.31-.64,2.92-2.47l-6.19-16.92h4.07l4,11.72h.06l3.88-11.72h3.95l-6,17c-1.48,4.21-3.08,5.62-6.35,5.62a11.74,11.74,0,0,1-2.41-.26Z" transform="translate(-94.12 -257.95)"/><rect class="b" x="73.77" y="39.03" width="37.43" height="5.49"/><rect class="b" x="73.77" y="74.43" width="37.43" height="5.49"/><path class="b" d="M148.37,284.49c0-13.91-9.69-26.54-28-26.54-19.71,0-38.82,25.46-15.51,50.7,0,0,9.36-8.12,11.54-10.23-17.86-7.2-11.78-29.54,4.19-29.54a15.25,15.25,0,0,1,15.54,15.34c0,8.26-7,15.79-14.61,23.36-4.6,4.56-9.88,9.25-15.51,14.12v-8.23H99.62V338H124.1v-6.37h-7.92C133.67,314.26,148.37,299.88,148.37,284.49Z" transform="translate(-94.12 -257.95)"/></svg>